<svg width="256" height="40" viewBox="0 0 256 40" fill="none" xmlns="http://www.w3.org/2000/svg">
<path d="M2.3575 31V8.6H9.7815C11.3282 8.6 12.7735 8.89333 14.1175 9.48C15.4722 10.056 16.6615 10.8613 17.6855 11.896C18.7202 12.92 19.5255 14.1093 20.1015 15.464C20.6882 16.808 20.9815 18.2533 20.9815 19.8C20.9815 21.3467 20.6882 22.7973 20.1015 24.152C19.5255 25.496 18.7202 26.6853 17.6855 27.72C16.6615 28.744 15.4722 29.5493 14.1175 30.136C12.7735 30.712 11.3282 31 9.7815 31H2.3575ZM6.2615 27.096H9.7815C10.7735 27.096 11.7068 26.9093 12.5815 26.536C13.4668 26.152 14.2455 25.6293 14.9175 24.968C15.5895 24.296 16.1175 23.5227 16.5015 22.648C16.8855 21.7627 17.0775 20.8133 17.0775 19.8C17.0775 18.7867 16.8855 17.8427 16.5015 16.968C16.1175 16.0933 15.5895 15.32 14.9175 14.648C14.2455 13.976 13.4722 13.4533 12.5975 13.08C11.7228 12.696 10.7842 12.504 9.7815 12.504H6.2615V27.096ZM23.5763 31V8.6H37.6243V12.504H27.4803V17.048H35.5283V20.952H27.4803V27.096H37.6243V31H23.5763ZM51.413 31.416C49.8983 31.416 48.4743 31.1173 47.141 30.52C45.8077 29.912 44.6343 29.0747 43.621 28.008C42.6183 26.9413 41.829 25.7093 41.253 24.312C40.6877 22.904 40.405 21.4 40.405 19.8C40.405 18.1893 40.6877 16.6853 41.253 15.288C41.829 13.88 42.6183 12.648 43.621 11.592C44.6343 10.5253 45.8077 9.69333 47.141 9.096C48.4743 8.488 49.8983 8.184 51.413 8.184C53.2263 8.184 54.8957 8.60533 56.421 9.448C57.9463 10.28 59.2103 11.3947 60.213 12.792L56.725 14.664C56.0957 13.8853 55.3117 13.2613 54.373 12.792C53.445 12.3227 52.4583 12.088 51.413 12.088C50.4317 12.088 49.509 12.2907 48.645 12.696C47.781 13.0907 47.0237 13.6453 46.373 14.36C45.7223 15.064 45.2157 15.8853 44.853 16.824C44.4903 17.752 44.309 18.744 44.309 19.8C44.309 20.8667 44.4903 21.864 44.853 22.792C45.2263 23.72 45.7383 24.5413 46.389 25.256C47.0397 25.96 47.7917 26.5147 48.645 26.92C49.509 27.3147 50.4317 27.512 51.413 27.512C52.4797 27.512 53.4717 27.2773 54.389 26.808C55.317 26.328 56.0957 25.6987 56.725 24.92L60.213 26.808C59.2103 28.1947 57.9463 29.3093 56.421 30.152C54.8957 30.9947 53.2263 31.416 51.413 31.416ZM63.2325 31V8.6H77.2805V12.504H67.1365V17.048H75.1845V20.952H67.1365V27.096H77.2805V31H63.2325ZM80.8888 31V8.6H85.1128L94.5688 23.944V8.6H98.4728V31H94.2648L84.7928 15.656V31H80.8888ZM148.451 31V8.6H157.043C158.259 8.6 159.358 8.904 160.339 9.512C161.321 10.12 162.099 10.936 162.675 11.96C163.251 12.9733 163.539 14.0987 163.539 15.336C163.539 16.3493 163.353 17.2827 162.979 18.136C162.617 18.9787 162.105 19.7093 161.443 20.328C160.793 20.9467 160.041 21.416 159.187 21.736L164.547 31H160.051L154.867 22.088H152.355V31H148.451ZM152.355 18.184H156.595C157.15 18.184 157.657 18.0453 158.115 17.768C158.574 17.4907 158.942 17.1173 159.219 16.648C159.497 16.1787 159.635 15.656 159.635 15.08C159.635 14.4933 159.497 13.9653 159.219 13.496C158.942 13.0267 158.574 12.6533 158.115 12.376C157.657 12.0987 157.15 11.96 156.595 11.96H152.355V18.184ZM174.47 8.6H178.967L187.111 31H182.967L181.527 27.032H171.927L170.487 31H166.343L174.47 8.6ZM173.351 23.128H180.087L176.711 13.896L173.351 23.128ZM189.014 31L193.366 8.6H196.598L202.054 22.952L207.51 8.6H210.742L215.094 31H211.11L208.422 17.144L203.382 30.488H200.71L195.67 17.144L192.998 31H189.014ZM218.326 31V8.6H232.374V12.504H222.23V17.048H230.278V20.952H222.23V27.096H232.374V31H218.326ZM235.983 31V8.6H243.407C244.953 8.6 246.399 8.89333 247.743 9.48C249.097 10.056 250.287 10.8613 251.311 11.896C252.345 12.92 253.151 14.1093 253.727 15.464C254.313 16.808 254.607 18.2533 254.607 19.8C254.607 21.3467 254.313 22.7973 253.727 24.152C253.151 25.496 252.345 26.6853 251.311 27.72C250.287 28.744 249.097 29.5493 247.743 30.136C246.399 30.712 244.953 31 243.407 31H235.983ZM239.887 27.096H243.407C244.399 27.096 245.332 26.9093 246.207 26.536C247.092 26.152 247.871 25.6293 248.543 24.968C249.215 24.296 249.743 23.5227 250.127 22.648C250.511 21.7627 250.703 20.8133 250.703 19.8C250.703 18.7867 250.511 17.8427 250.127 16.968C249.743 16.0933 249.215 15.32 248.543 14.648C247.871 13.976 247.097 13.4533 246.223 13.08C245.348 12.696 244.409 12.504 243.407 12.504H239.887V27.096Z" fill="white"/>
<path d="M141.999 25.8948H129.999V37.8948H117.999V25.8948H105.999V13.8948H117.999V1.89478H129.999V13.8948H141.999" fill="#BC0909"/>
<path d="M141.999 25.8948H129.999V37.8948H117.999V25.8948H105.999V13.8948H117.999V1.89478H129.999V13.8948H141.999V25.8948Z" stroke="#BC0909" stroke-width="3"/>
</svg>
